<?xml version="1.0" encoding="UTF-8" standalone="no"?>
<!-- Created with Inkscape (http://www.inkscape.org/) -->

<svg
   width="36.443623mm"
   height="42.728539mm"
   viewBox="0 0 36.443623 42.728539"
   version="1.1"
   id="svg1"
   xml:space="preserve"
   inkscape:version="1.4.2 (f4327f4, 2025-05-13)"
   sodipodi:docname="wax_seal.svg"
   xmlns:inkscape="http://www.inkscape.org/namespaces/inkscape"
   xmlns:sodipodi="http://sodipodi.sourceforge.net/DTD/sodipodi-0.dtd"
   xmlns="http://www.w3.org/2000/svg"
   xmlns:svg="http://www.w3.org/2000/svg"><sodipodi:namedview
     id="namedview1"
     pagecolor="#ffffff"
     bordercolor="#000000"
     borderopacity="0.25"
     inkscape:showpageshadow="2"
     inkscape:pageopacity="0.0"
     inkscape:pagecheckerboard="false"
     inkscape:deskcolor="#d1d1d1"
     inkscape:document-units="mm"
     inkscape:zoom="1"
     inkscape:cx="-209"
     inkscape:cy="20.5"
     inkscape:window-width="2560"
     inkscape:window-height="1377"
     inkscape:window-x="-8"
     inkscape:window-y="-8"
     inkscape:window-maximized="1"
     inkscape:current-layer="layer1"
     labelstyle="default" /><defs
     id="defs1" /><g
     inkscape:label="Layer 1"
     inkscape:groupmode="layer"
     id="layer1"
     style="display:inline"
     transform="translate(-82.150739,-116.45284)"><path
       d="m 101.55091,116.45284 c -1.762413,0.099 -3.127182,0.93951 -4.69826,1.6553 -0.923735,0.4077 -1.937875,0.79829 -2.821625,1.22509 -0.923733,0.36485 -1.742134,0.88961 -2.625773,1.35487 -1.861991,1.32233 -3.47544,2.95325 -5.164486,4.5623 -0.507906,0.43968 -1.175773,1.25553 -1.670693,1.92266 -1.927739,2.4191 -2.813052,5.59149 -2.254014,8.65633 0.377416,2.19647 0.802374,4.57903 1.354984,6.63039 0.457868,1.67931 1.208321,3.21125 2.331526,4.60788 1.563222,1.74675 3.221453,3.73343 5.318591,4.94373 1.250543,0.75263 3.036337,1.31798 4.432335,1.54167 1.520502,0.18788 3.168019,0.60876 4.698435,0.54333 6.49825,-0.27781 12.30014,-5.01124 14.69386,-7.69225 1.16548,-1.30536 2.38989,-2.72101 2.93822,-4.38471 0.24795,-1.40215 0.67916,-3.00704 0.44086,-4.5292 -0.26114,-2.26815 -0.8414,-4.38653 -1.5487,-6.54929 -0.68704,-1.88158 -1.17318,-3.79401 -1.88011,-5.71562 -0.77265,-1.9743 -2.01212,-3.84403 -3.78514,-5.12756 -1.1013,-0.6109 -2.13677,-1.00937 -3.27389,-1.48363 -2.15034,-0.70899 -4.11693,-2.12939 -6.48612,-2.16129 z"
       style="display:inline;fill:#800000"
       id="path98"
       sodipodi:nodetypes="cccccccccccssccccccc" /><path
       id="path126"
       style="display:inline;fill:#2b0000"
       d="m 100.51635,120.08363 c -1.758503,-0.0218 -3.558662,0.26828 -5.206149,0.86306 -2.789491,1.00707 -4.917893,3.24174 -6.858601,5.50657 -2.003157,2.33771 -3.185156,5.20958 -3.348856,8.24772 -0.16002,2.96985 0.05044,6.0609 1.446751,8.71319 0.424429,0.8062 3.047751,2.37184 3.07637,1.46127 0.02304,-0.73309 -1.04988,-3.17012 -1.191585,-4.83664 -0.199787,-2.34959 0.148502,-4.68421 0.530367,-7.01501 0.537237,-3.27915 2.856026,-5.78631 5.444141,-7.6234 2.601574,-1.84665 5.958922,-2.21486 9.038562,-1.95376 3.02253,0.25626 6.21427,1.27078 8.21145,3.63726 0.40735,0.48267 1.14848,0.73574 0.85652,-0.18768 -0.91078,-2.8806 -3.28197,-5.13863 -6.16598,-5.92966 -1.88118,-0.51598 -3.88561,-0.85879 -5.83299,-0.88292 z m -8.038244,8.3771 c -1.124174,1.31111 -1.978904,2.79428 -2.653806,4.33941 -0.775057,1.77442 0.0212,6.24712 0.537243,5.73107 0.394826,-0.39483 -0.07546,-5.14296 1.200145,-7.4282 2.150527,-3.85265 6.755499,-5.73684 11.062622,-5.25566 1.54993,0.17315 4.68764,1.36008 4.51917,0.97912 -0.21342,-0.48261 -3.60255,-2.17394 -5.60174,-2.14457 -3.272925,0.0481 -6.728123,1.05495 -9.063634,3.77883 z m 19.606524,11.67335 c -0.70344,-0.0145 -1.91057,3.28429 -0.50157,1.53474 0.24423,-0.30326 1.0297,-1.52385 0.50157,-1.53474 z m 1.07085,5.79434 c -2.4298,1.24692 -5.03091,1.9745 -7.38928,3.3791 -1.79031,1.06628 -3.90042,1.53222 -5.930874,1.96847 -1.722017,0.36998 -4.832501,-1.0694 -5.381577,0.55551 -0.354937,1.05039 1.872066,0.86662 2.606176,1.61527 0.929677,0.9481 2.683935,0.62275 3.911365,0.8391 1.38625,0.24434 2.27814,0.82185 2.61515,2.27255 0.33332,1.43482 1.88734,2.9396 3.37188,2.56481 1.27087,-0.32085 1.27701,-2.05737 1.76879,-3.15966 0.23866,-0.53494 0.30267,-1.14067 0.56767,-1.66306 1.16015,-2.28699 2.70598,-4.32734 4.40704,-6.3059 1.01077,-1.17566 2.60319,-2.13012 3.28076,-3.67129 0.26661,-0.60641 1.20302,-1.96417 0.87403,-2.16961 -0.28891,-0.18041 -2.16058,2.47095 -4.70113,3.77471 z m -2.63509,-3.21672 c -0.91979,0.1331 -1.41684,2.01335 -0.27211,0.6538 0.0925,-0.10983 0.50122,-0.68695 0.27211,-0.6538 z m -2.99052,2.62827 c -2.30092,0.74342 -4.6152,1.76728 -7.07754,1.59625 -0.769658,-0.0535 -3.499258,0.28496 -1.255306,0.68126 2.844516,0.50236 5.795626,-0.47096 8.181086,-1.99969 0.0252,-0.0162 0.36958,-0.3482 0.15176,-0.27782 z m -11.060306,1.04076 c -0.904288,0.0236 1.118357,0.88177 0.935372,0.40648 -0.122517,-0.31823 -0.595148,-0.41536 -0.935372,-0.40648 z"
       sodipodi:nodetypes="ssssssssssssssssssssassssssssssssaasssssssssssssss" /><path
       id="path143"
       style="display:inline;fill:#ffffff;stroke-width:0.264583"
       d="m 101.81549,117.07192 c -2.588359,0.0382 -4.860306,1.61938 -7.235211,2.54142 -3.679825,1.42867 -6.536018,4.3143 -9.076074,7.23031 -0.861409,0.98891 -2.049184,2.14423 -1.974073,3.49521 0.05574,1.00258 0.136624,3.84771 0.588261,2.95785 0.251378,-0.49529 0.628325,-2.40535 1.170799,-3.59384 1.718894,-3.76588 4.665199,-6.93781 8.287537,-8.77647 2.095348,-1.06358 4.386213,-1.81512 6.725521,-2.19644 2.23879,-0.36494 4.14649,0.96507 6.22405,1.48274 1.88903,0.47069 3.53024,1.51188 4.97548,2.79622 0.38569,0.057 -0.094,-0.53641 -0.19154,-0.68437 -0.17514,-0.26581 -0.23186,-0.56136 -0.27234,-0.89165 -0.24242,-1.97822 -2.85484,-2.05826 -4.35266,-2.7917 -1.189,-0.58222 -2.45253,-0.98286 -3.69967,-1.40965 -0.37319,-0.12771 -0.77569,-0.16546 -1.17008,-0.15963 z m -0.0202,6.89674 c -0.37528,0.15872 1.0241,0.53162 1.92631,0.5794 0.82409,0.0436 1.15639,0.0136 0.88266,-0.0992 -0.41708,-0.17193 -1.86733,-0.87845 -2.80897,-0.4802 z m -2.821536,0.0879 c -3.850524,0.47853 -7.470265,3.00816 -9.001414,6.58932 -0.1132,0.26476 -0.39011,1.08851 -0.229067,0.8614 1.423036,-2.00686 2.820761,-4.07355 4.947936,-5.4307 1.31398,-0.83833 2.881303,-1.20537 4.249954,-1.70794 0.174626,-0.0641 0.298488,-0.34512 0.03259,-0.31208 z m 15.787146,4.9196 c -0.6496,-0.53635 1.34693,2.53056 1.45758,3.9963 0.20231,2.68004 0.1833,5.70724 -1.49449,7.90787 -0.72143,0.94625 -0.28573,-3.32621 -1.34388,-1.27336 -0.98708,1.91497 -2.20355,3.69828 -3.90108,5.12212 -2.84337,2.38494 -6.58742,3.42455 -10.194985,3.40519 -1.585183,-0.009 -3.796119,-0.17759 -4.864373,-0.0486 -1.050911,0.1269 3.793225,1.25094 5.708838,1.20349 0.80919,-0.02 3.71502,-0.3095 1.43981,0.32489 -2.770353,0.77245 -5.697216,0.13703 -8.472422,-0.34586 -2.076003,-0.36122 -5.040737,-2.65304 -5.560554,-2.87491 -1.477691,-0.63073 2.909383,2.36926 4.494371,3.14579 2.86264,1.40249 6.148117,1.20467 9.197085,0.73809 3.5661,-0.54572 6.57915,-2.76179 9.90366,-4.05516 2.63821,-1.02637 4.76588,-3.16118 5.778,-5.816 0.95849,-2.51414 0.56182,-5.3933 -0.51489,-7.87299 -0.40004,-0.92131 -0.99251,-3.0283 -1.63267,-3.55686 z m -2.05827,2.42724 c -0.57852,1.15421 0.38734,2.8179 0.49772,4.56869 0.08,1.26834 0.90006,-1.39764 0.37453,-3.01858 -0.16703,-0.5152 -0.6169,-2.05956 -0.87225,-1.55011 z m -1.49448,8.22947 c -1.56989,0.92411 -2.32959,2.84934 -3.84164,3.93612 -1.80612,1.29814 -4.07034,1.53971 -6.15988,2.12938 -1.09251,0.30831 -4.497352,-0.0445 -3.791028,0.3086 3.339538,1.66945 10.184518,-0.30099 12.999698,-4.25919 0.39291,-0.55245 1.31807,-2.42408 0.79285,-2.11491 z m -2.09858,12.67158 c -0.38607,0.0201 -1.91895,1.8044 -3.03353,2.57901 -1.02195,0.71023 -3.35627,1.01408 -1.52453,2.04475 1.04466,0.5878 1.08538,-1.00958 2.55403,0.34096 0.57876,0.53221 1.76934,-2.13928 2.37113,-3.64383 0.18701,-0.52906 0.0893,-1.34468 -0.3671,-1.32089 z"
       sodipodi:nodetypes="ssssssssscssssssssssssssssssssssssssssssssssssssssssssssss" /></g></svg>
