<?xml version="1.0" encoding="UTF-8"?>
<svg width="40px" height="50px" version="1.1"
	xmlns="http://www.w3.org/2000/svg">
	<g transform="translate(-80 -110)">
		<path d="m101.55 116.45c-1.7624 0.099-3.1272 0.93951-4.6983 1.6553-0.92374 0.4077-1.9379 0.79829-2.8216 1.2251-0.92373 0.36485-1.7421 0.88961-2.6258 1.3549-1.862 1.3223-3.4754 2.9532-5.1645 4.5623-0.50791 0.43968-1.1758 1.2555-1.6707 1.9227-1.9277 2.4191-2.8131 5.5915-2.254 8.6563 0.37742 2.1965 0.80237 4.579 1.355 6.6304 0.45787 1.6793 1.2083 3.2112 2.3315 4.6079 1.5632 1.7468 3.2215 3.7334 5.3186 4.9437 1.2505 0.75263 3.0363 1.318 4.4323 1.5417 1.5205 0.18788 3.168 0.60876 4.6984 0.54333 6.4982-0.27781 12.3-5.0112 14.694-7.6922 1.1655-1.3054 2.3899-2.721 2.9382-4.3847 0.24795-1.4022 0.67916-3.007 0.44086-4.5292-0.26114-2.2682-0.8414-4.3865-1.5487-6.5493-0.68704-1.8816-1.1732-3.794-1.8801-5.7156-0.77265-1.9743-2.0121-3.844-3.7851-5.1276-1.1013-0.6109-2.1368-1.0094-3.2739-1.4836-2.1503-0.70899-4.1169-2.1294-6.4861-2.1613z" style="fill:#800000"/>
		<path d="m100.52 120.08c-1.7585-0.0218-3.5587 0.26828-5.2061 0.86306-2.7895 1.0071-4.9179 3.2417-6.8586 5.5066-2.0032 2.3377-3.1852 5.2096-3.3489 8.2477-0.16002 2.9698 0.05044 6.0609 1.4468 8.7132 0.42443 0.8062 3.0478 2.3718 3.0764 1.4613 0.02304-0.73309-1.0499-3.1701-1.1916-4.8366-0.19979-2.3496 0.1485-4.6842 0.53037-7.015 0.53724-3.2792 2.856-5.7863 5.4441-7.6234 2.6016-1.8466 5.9589-2.2149 9.0386-1.9538 3.0225 0.25626 6.2143 1.2708 8.2114 3.6373 0.40735 0.48267 1.1485 0.73574 0.85652-0.18768-0.91078-2.8806-3.282-5.1386-6.166-5.9297-1.8812-0.51598-3.8856-0.85879-5.833-0.88292zm-8.0382 8.3771c-1.1242 1.3111-1.9789 2.7943-2.6538 4.3394-0.77506 1.7744 0.0212 6.2471 0.53724 5.7311 0.39483-0.39483-0.07546-5.143 1.2001-7.4282 2.1505-3.8526 6.7555-5.7368 11.063-5.2557 1.5499 0.17315 4.6876 1.3601 4.5192 0.97912-0.21342-0.48261-3.6026-2.1739-5.6017-2.1446-3.2729 0.0481-6.7281 1.055-9.0636 3.7788zm19.607 11.673c-0.70344-0.0145-1.9106 3.2843-0.50157 1.5347 0.24423-0.30326 1.0297-1.5238 0.50157-1.5347zm1.0708 5.7943c-2.4298 1.2469-5.0309 1.9745-7.3893 3.3791-1.7903 1.0663-3.9004 1.5322-5.9309 1.9685-1.722 0.36998-4.8325-1.0694-5.3816 0.55551-0.35494 1.0504 1.8721 0.86662 2.6062 1.6153 0.92968 0.9481 2.6839 0.62275 3.9114 0.8391 1.3862 0.24434 2.2781 0.82185 2.6152 2.2726 0.33332 1.4348 1.8873 2.9396 3.3719 2.5648 1.2709-0.32085 1.277-2.0574 1.7688-3.1597 0.23866-0.53494 0.30267-1.1407 0.56767-1.6631 1.1602-2.287 2.706-4.3273 4.407-6.3059 1.0108-1.1757 2.6032-2.1301 3.2808-3.6713 0.26661-0.60641 1.203-1.9642 0.87403-2.1696-0.28891-0.18041-2.1606 2.471-4.7011 3.7747zm-2.6351-3.2167c-0.91979 0.1331-1.4168 2.0134-0.27211 0.6538 0.0925-0.10983 0.50122-0.68695 0.27211-0.6538zm-2.9905 2.6283c-2.3009 0.74342-4.6152 1.7673-7.0775 1.5962-0.76966-0.0535-3.4993 0.28496-1.2553 0.68126 2.8445 0.50236 5.7956-0.47096 8.1811-1.9997 0.0252-0.0162 0.36958-0.3482 0.15176-0.27782zm-11.06 1.0408c-0.90429 0.0236 1.1184 0.88177 0.93537 0.40648-0.12252-0.31823-0.59515-0.41536-0.93537-0.40648z" style="fill:#2b0000"/>
		<path d="m101.82 117.07c-2.5884 0.0382-4.8603 1.6194-7.2352 2.5414-3.6798 1.4287-6.536 4.3143-9.0761 7.2303-0.86141 0.98891-2.0492 2.1442-1.9741 3.4952 0.05574 1.0026 0.13662 3.8477 0.58826 2.9578 0.25138-0.49529 0.62832-2.4054 1.1708-3.5938 1.7189-3.7659 4.6652-6.9378 8.2875-8.7765 2.0953-1.0636 4.3862-1.8151 6.7255-2.1964 2.2388-0.36494 4.1465 0.96507 6.224 1.4827 1.889 0.47069 3.5302 1.5119 4.9755 2.7962 0.38569 0.057-0.094-0.53641-0.19154-0.68437-0.17514-0.26581-0.23186-0.56136-0.27234-0.89165-0.24242-1.9782-2.8548-2.0583-4.3527-2.7917-1.189-0.58222-2.4525-0.98286-3.6997-1.4096-0.37319-0.12771-0.77569-0.16546-1.1701-0.15963zm-0.0202 6.8967c-0.37528 0.15872 1.0241 0.53162 1.9263 0.5794 0.82409 0.0436 1.1564 0.0136 0.88266-0.0992-0.41708-0.17193-1.8673-0.87845-2.809-0.4802zm-2.8215 0.0879c-3.8505 0.47853-7.4703 3.0082-9.0014 6.5893-0.1132 0.26476-0.39011 1.0885-0.22907 0.8614 1.423-2.0069 2.8208-4.0736 4.9479-5.4307 1.314-0.83833 2.8813-1.2054 4.25-1.7079 0.17463-0.0641 0.29849-0.34512 0.03259-0.31208zm15.787 4.9196c-0.6496-0.53635 1.3469 2.5306 1.4576 3.9963 0.20231 2.68 0.1833 5.7072-1.4945 7.9079-0.72143 0.94625-0.28573-3.3262-1.3439-1.2734-0.98708 1.915-2.2036 3.6983-3.9011 5.1221-2.8434 2.3849-6.5874 3.4246-10.195 3.4052-1.5852-9e-3 -3.7961-0.17759-4.8644-0.0486-1.0509 0.1269 3.7932 1.2509 5.7088 1.2035 0.80919-0.02 3.715-0.3095 1.4398 0.32489-2.7704 0.77245-5.6972 0.13703-8.4724-0.34586-2.076-0.36122-5.0407-2.653-5.5606-2.8749-1.4777-0.63073 2.9094 2.3693 4.4944 3.1458 2.8626 1.4025 6.1481 1.2047 9.1971 0.73809 3.5661-0.54572 6.5792-2.7618 9.9037-4.0552 2.6382-1.0264 4.7659-3.1612 5.778-5.816 0.95849-2.5141 0.56182-5.3933-0.51489-7.873-0.40004-0.92131-0.99251-3.0283-1.6327-3.5569zm-2.0583 2.4272c-0.57852 1.1542 0.38734 2.8179 0.49772 4.5687 0.08 1.2683 0.90006-1.3976 0.37453-3.0186-0.16703-0.5152-0.6169-2.0596-0.87225-1.5501zm-1.4945 8.2295c-1.5699 0.92411-2.3296 2.8493-3.8416 3.9361-1.8061 1.2981-4.0703 1.5397-6.1599 2.1294-1.0925 0.30831-4.4974-0.0445-3.791 0.3086 3.3395 1.6694 10.185-0.30099 13-4.2592 0.39291-0.55245 1.3181-2.4241 0.79285-2.1149zm-2.0986 12.672c-0.38607 0.0201-1.919 1.8044-3.0335 2.579-1.022 0.71023-3.3563 1.0141-1.5245 2.0448 1.0447 0.5878 1.0854-1.0096 2.554 0.34096 0.57876 0.53221 1.7693-2.1393 2.3711-3.6438 0.18701-0.52906 0.0893-1.3447-0.3671-1.3209z" style="fill:#ffffff"/>
	</g>
</svg>
